<svg width="1400" height="900" viewBox="0 0 1400 900" fill="none" xmlns="http://www.w3.org/2000/svg">
  <defs>
    <linearGradient id="bg" x1="100" y1="60" x2="1300" y2="860" gradientUnits="userSpaceOnUse">
      <stop stop-color="#F4F8FC"/>
      <stop offset="1" stop-color="#E4EEF9"/>
    </linearGradient>
    <linearGradient id="blue" x1="0" y1="0" x2="1" y2="1">
      <stop stop-color="#1F7AE0"/>
      <stop offset="1" stop-color="#45C2E8"/>
    </linearGradient>
    <filter id="shadow" x="-20%" y="-20%" width="140%" height="140%">
      <feDropShadow dx="0" dy="10" stdDeviation="14" flood-color="#7C93A9" flood-opacity="0.18"/>
    </filter>
  </defs>
  <rect width="1400" height="900" rx="32" fill="url(#bg)"/>
  <text x="76" y="96" fill="#17324D" font-family="Segoe UI, Arial, sans-serif" font-size="42" font-weight="700">Employee Management Architecture</text>
  <text x="76" y="136" fill="#5E7891" font-family="Segoe UI, Arial, sans-serif" font-size="22">Microservices, data, AI, IoT, blockchain, and cloud deployment overview</text>
  <g filter="url(#shadow)">
    <rect x="84" y="196" width="260" height="170" rx="24" fill="#FFFFFF"/>
    <rect x="396" y="196" width="260" height="170" rx="24" fill="#FFFFFF"/>
    <rect x="708" y="196" width="260" height="170" rx="24" fill="#FFFFFF"/>
    <rect x="1020" y="196" width="260" height="170" rx="24" fill="#FFFFFF"/>
    <rect x="250" y="468" width="320" height="192" rx="24" fill="#FFFFFF"/>
    <rect x="618" y="468" width="320" height="192" rx="24" fill="#FFFFFF"/>
    <rect x="986" y="468" width="300" height="192" rx="24" fill="#FFFFFF"/>
    <rect x="452" y="720" width="500" height="116" rx="24" fill="#17324D"/>
  </g>
  <rect x="108" y="220" width="212" height="46" rx="14" fill="url(#blue)"/>
  <text x="143" y="249" fill="#FFFFFF" font-family="Segoe UI, Arial, sans-serif" font-size="22" font-weight="700">Desktop WinForms</text>
  <text x="108" y="300" fill="#56748F" font-family="Segoe UI, Arial, sans-serif" font-size="18">Employee admins manage records,</text>
  <text x="108" y="328" fill="#56748F" font-family="Segoe UI, Arial, sans-serif" font-size="18">photos, supervisors, and dashboards.</text>
  <rect x="420" y="220" width="212" height="46" rx="14" fill="url(#blue)"/>
  <text x="476" y="249" fill="#FFFFFF" font-family="Segoe UI, Arial, sans-serif" font-size="22" font-weight="700">Web Portal</text>
  <text x="420" y="300" fill="#56748F" font-family="Segoe UI, Arial, sans-serif" font-size="18">Self-service HR portal, analytics,</text>
  <text x="420" y="328" fill="#56748F" font-family="Segoe UI, Arial, sans-serif" font-size="18">and manager approvals.</text>
  <rect x="732" y="220" width="212" height="46" rx="14" fill="url(#blue)"/>
  <text x="782" y="249" fill="#FFFFFF" font-family="Segoe UI, Arial, sans-serif" font-size="22" font-weight="700">Mobile App</text>
  <text x="732" y="300" fill="#56748F" font-family="Segoe UI, Arial, sans-serif" font-size="18">Attendance, alerts, approvals,</text>
  <text x="732" y="328" fill="#56748F" font-family="Segoe UI, Arial, sans-serif" font-size="18">and field workforce access.</text>
  <rect x="1044" y="220" width="212" height="46" rx="14" fill="url(#blue)"/>
  <text x="1115" y="249" fill="#FFFFFF" font-family="Segoe UI, Arial, sans-serif" font-size="22" font-weight="700">API Gateway</text>
  <text x="1044" y="300" fill="#56748F" font-family="Segoe UI, Arial, sans-serif" font-size="18">Unified auth, rate limits, routing,</text>
  <text x="1044" y="328" fill="#56748F" font-family="Segoe UI, Arial, sans-serif" font-size="18">and integration endpoints.</text>
  <rect x="284" y="492" width="252" height="44" rx="14" fill="#17324D"/>
  <text x="318" y="520" fill="#FFFFFF" font-family="Segoe UI, Arial, sans-serif" font-size="22" font-weight="700">Core Services</text>
  <text x="282" y="568" fill="#56748F" font-family="Segoe UI, Arial, sans-serif" font-size="18">Employee service</text>
  <text x="282" y="596" fill="#56748F" font-family="Segoe UI, Arial, sans-serif" font-size="18">Supervisor service</text>
  <text x="282" y="624" fill="#56748F" font-family="Segoe UI, Arial, sans-serif" font-size="18">Auth and audit service</text>
  <rect x="652" y="492" width="252" height="44" rx="14" fill="#17324D"/>
  <text x="690" y="520" fill="#FFFFFF" font-family="Segoe UI, Arial, sans-serif" font-size="22" font-weight="700">Data + Intelligence</text>
  <text x="650" y="568" fill="#56748F" font-family="Segoe UI, Arial, sans-serif" font-size="18">SQL / JSON persistence</text>
  <text x="650" y="596" fill="#56748F" font-family="Segoe UI, Arial, sans-serif" font-size="18">ML turnover prediction</text>
  <text x="650" y="624" fill="#56748F" font-family="Segoe UI, Arial, sans-serif" font-size="18">Quantum workforce simulation</text>
  <rect x="1010" y="492" width="252" height="44" rx="14" fill="#17324D"/>
  <text x="1076" y="520" fill="#FFFFFF" font-family="Segoe UI, Arial, sans-serif" font-size="22" font-weight="700">Edge + Trust</text>
  <text x="1018" y="568" fill="#56748F" font-family="Segoe UI, Arial, sans-serif" font-size="18">IoT attendance devices</text>
  <text x="1018" y="596" fill="#56748F" font-family="Segoe UI, Arial, sans-serif" font-size="18">Blockchain audit ledger</text>
  <text x="1018" y="624" fill="#56748F" font-family="Segoe UI, Arial, sans-serif" font-size="18">HR system integrations</text>
  <rect x="486" y="748" width="432" height="58" rx="18" fill="url(#blue)"/>
  <text x="562" y="785" fill="#FFFFFF" font-family="Segoe UI, Arial, sans-serif" font-size="26" font-weight="700">AWS / Azure Deployment Layer</text>
  <line x1="214" y1="366" x2="214" y2="430" stroke="#6F89A1" stroke-width="6" stroke-linecap="round"/>
  <line x1="526" y1="366" x2="526" y2="430" stroke="#6F89A1" stroke-width="6" stroke-linecap="round"/>
  <line x1="838" y1="366" x2="838" y2="430" stroke="#6F89A1" stroke-width="6" stroke-linecap="round"/>
  <line x1="1150" y1="366" x2="1150" y2="430" stroke="#6F89A1" stroke-width="6" stroke-linecap="round"/>
  <line x1="214" y1="430" x2="1150" y2="430" stroke="#6F89A1" stroke-width="6" stroke-linecap="round"/>
  <line x1="410" y1="430" x2="410" y2="468" stroke="#6F89A1" stroke-width="6" stroke-linecap="round"/>
  <line x1="778" y1="430" x2="778" y2="468" stroke="#6F89A1" stroke-width="6" stroke-linecap="round"/>
  <line x1="1136" y1="430" x2="1136" y2="468" stroke="#6F89A1" stroke-width="6" stroke-linecap="round"/>
  <line x1="410" y1="660" x2="410" y2="720" stroke="#6F89A1" stroke-width="6" stroke-linecap="round"/>
  <line x1="778" y1="660" x2="778" y2="720" stroke="#6F89A1" stroke-width="6" stroke-linecap="round"/>
  <line x1="1136" y1="660" x2="1136" y2="720" stroke="#6F89A1" stroke-width="6" stroke-linecap="round"/>
  <line x1="410" y1="690" x2="1136" y2="690" stroke="#6F89A1" stroke-width="6" stroke-linecap="round"/>
</svg>
