<svg width="1400" height="900" viewBox="0 0 1400 900" fill="none" xmlns="http://www.w3.org/2000/svg">
  <defs>
    <linearGradient id="bg" x1="40" y1="30" x2="1360" y2="860" gradientUnits="userSpaceOnUse">
      <stop stop-color="#101B2D"/>
      <stop offset="1" stop-color="#1A3552"/>
    </linearGradient>
    <linearGradient id="good" x1="0" y1="0" x2="1" y2="1">
      <stop stop-color="#4ADF9B"/>
      <stop offset="1" stop-color="#21B57D"/>
    </linearGradient>
    <filter id="shadow" x="-20%" y="-20%" width="140%" height="140%">
      <feDropShadow dx="0" dy="12" stdDeviation="16" flood-color="#081220" flood-opacity="0.4"/>
    </filter>
  </defs>
  <rect width="1400" height="900" rx="32" fill="url(#bg)"/>
  <text x="76" y="96" fill="#F2F8FF" font-family="Segoe UI, Arial, sans-serif" font-size="42" font-weight="700">CI/CD Pipeline</text>
  <text x="76" y="136" fill="#93B3CF" font-family="Segoe UI, Arial, sans-serif" font-size="22">GitHub Actions workflow from pull request validation to production deployment</text>
  <g filter="url(#shadow)">
    <rect x="86" y="234" width="230" height="150" rx="24" fill="#16304B"/>
    <rect x="364" y="234" width="230" height="150" rx="24" fill="#16304B"/>
    <rect x="642" y="234" width="230" height="150" rx="24" fill="#16304B"/>
    <rect x="920" y="234" width="230" height="150" rx="24" fill="#16304B"/>
    <rect x="1198" y="234" width="116" height="150" rx="24" fill="#16304B"/>
    <rect x="188" y="514" width="280" height="164" rx="24" fill="#16304B"/>
    <rect x="560" y="514" width="280" height="164" rx="24" fill="#16304B"/>
    <rect x="932" y="514" width="280" height="164" rx="24" fill="#16304B"/>
  </g>
  <rect x="112" y="260" width="178" height="42" rx="14" fill="url(#good)"/>
  <rect x="390" y="260" width="178" height="42" rx="14" fill="url(#good)"/>
  <rect x="668" y="260" width="178" height="42" rx="14" fill="url(#good)"/>
  <rect x="946" y="260" width="178" height="42" rx="14" fill="url(#good)"/>
  <rect x="1212" y="260" width="88" height="42" rx="14" fill="url(#good)"/>
  <text x="172" y="287" fill="#0E2235" font-family="Segoe UI, Arial, sans-serif" font-size="22" font-weight="700">Build</text>
  <text x="442" y="287" fill="#0E2235" font-family="Segoe UI, Arial, sans-serif" font-size="22" font-weight="700">Test</text>
  <text x="713" y="287" fill="#0E2235" font-family="Segoe UI, Arial, sans-serif" font-size="22" font-weight="700">Package</text>
  <text x="1005" y="287" fill="#0E2235" font-family="Segoe UI, Arial, sans-serif" font-size="22" font-weight="700">Deploy</text>
  <text x="1232" y="287" fill="#0E2235" font-family="Segoe UI, Arial, sans-serif" font-size="22" font-weight="700">Prod</text>
  <text x="112" y="334" fill="#A7C2DA" font-family="Segoe UI, Arial, sans-serif" font-size="18">Compile desktop, API, and web</text>
  <text x="112" y="360" fill="#A7C2DA" font-family="Segoe UI, Arial, sans-serif" font-size="18">Restore dependencies and lint</text>
  <text x="390" y="334" fill="#A7C2DA" font-family="Segoe UI, Arial, sans-serif" font-size="18">Run unit, integration, UI tests</text>
  <text x="390" y="360" fill="#A7C2DA" font-family="Segoe UI, Arial, sans-serif" font-size="18">Security and config validation</text>
  <text x="668" y="334" fill="#A7C2DA" font-family="Segoe UI, Arial, sans-serif" font-size="18">Build Docker images and artifacts</text>
  <text x="668" y="360" fill="#A7C2DA" font-family="Segoe UI, Arial, sans-serif" font-size="18">Publish release notes</text>
  <text x="946" y="334" fill="#A7C2DA" font-family="Segoe UI, Arial, sans-serif" font-size="18">Push to AWS ECS or Azure App</text>
  <text x="946" y="360" fill="#A7C2DA" font-family="Segoe UI, Arial, sans-serif" font-size="18">Migrate database and warm caches</text>
  <text x="1218" y="334" fill="#A7C2DA" font-family="Segoe UI, Arial, sans-serif" font-size="18">Healthy</text>
  <line x1="316" y1="309" x2="364" y2="309" stroke="#5FA6D8" stroke-width="8" stroke-linecap="round"/>
  <line x1="594" y1="309" x2="642" y2="309" stroke="#5FA6D8" stroke-width="8" stroke-linecap="round"/>
  <line x1="872" y1="309" x2="920" y2="309" stroke="#5FA6D8" stroke-width="8" stroke-linecap="round"/>
  <line x1="1150" y1="309" x2="1198" y2="309" stroke="#5FA6D8" stroke-width="8" stroke-linecap="round"/>
  <rect x="218" y="540" width="220" height="46" rx="14" fill="#244C71"/>
  <rect x="590" y="540" width="220" height="46" rx="14" fill="#244C71"/>
  <rect x="962" y="540" width="220" height="46" rx="14" fill="#244C71"/>
  <text x="264" y="569" fill="#F2F8FF" font-family="Segoe UI, Arial, sans-serif" font-size="22" font-weight="700">Pull Request Gate</text>
  <text x="650" y="569" fill="#F2F8FF" font-family="Segoe UI, Arial, sans-serif" font-size="22" font-weight="700">Staging Release</text>
  <text x="1006" y="569" fill="#F2F8FF" font-family="Segoe UI, Arial, sans-serif" font-size="22" font-weight="700">Production Rollout</text>
  <text x="222" y="622" fill="#A7C2DA" font-family="Segoe UI, Arial, sans-serif" font-size="18">Checks, review approvals, branch protections</text>
  <text x="594" y="622" fill="#A7C2DA" font-family="Segoe UI, Arial, sans-serif" font-size="18">Preview deploy, smoke tests, QA sign-off</text>
  <text x="966" y="622" fill="#A7C2DA" font-family="Segoe UI, Arial, sans-serif" font-size="18">Blue-green deploy, monitoring, rollback hooks</text>
  <line x1="328" y1="384" x2="328" y2="514" stroke="#5FA6D8" stroke-width="6" stroke-linecap="round"/>
  <line x1="700" y1="384" x2="700" y2="514" stroke="#5FA6D8" stroke-width="6" stroke-linecap="round"/>
  <line x1="1072" y1="384" x2="1072" y2="514" stroke="#5FA6D8" stroke-width="6" stroke-linecap="round"/>
  <rect x="74" y="748" width="1252" height="94" rx="24" fill="#132A42"/>
  <text x="112" y="801" fill="#E6F4FF" font-family="Consolas, monospace" font-size="24">workflow_dispatch  pull_request  push:main  environment approvals  deploy-prod</text>
</svg>
