<svg width="1400" height="900" viewBox="0 0 1400 900" fill="none" xmlns="http://www.w3.org/2000/svg">
  <defs>
    <linearGradient id="bg" x1="0" y1="0" x2="1400" y2="900" gradientUnits="userSpaceOnUse">
      <stop stop-color="#F5FAFF"/>
      <stop offset="1" stop-color="#E6F1FB"/>
    </linearGradient>
    <linearGradient id="blue" x1="0" y1="0" x2="1" y2="1">
      <stop stop-color="#1593FF"/>
      <stop offset="1" stop-color="#0C6FD0"/>
    </linearGradient>
    <filter id="shadow" x="-20%" y="-20%" width="140%" height="140%">
      <feDropShadow dx="0" dy="12" stdDeviation="16" flood-color="#7B93A7" flood-opacity="0.22"/>
    </filter>
  </defs>
  <rect width="1400" height="900" rx="32" fill="url(#bg)"/>
  <text x="72" y="96" fill="#15314B" font-family="Segoe UI, Arial, sans-serif" font-size="42" font-weight="700">Docker Compose Setup</text>
  <text x="72" y="136" fill="#5C7691" font-family="Segoe UI, Arial, sans-serif" font-size="22">Local development stack for the employee management platform</text>
  <g filter="url(#shadow)">
    <rect x="118" y="214" width="230" height="168" rx="24" fill="#FFFFFF"/>
    <rect x="404" y="214" width="230" height="168" rx="24" fill="#FFFFFF"/>
    <rect x="690" y="214" width="230" height="168" rx="24" fill="#FFFFFF"/>
    <rect x="976" y="214" width="230" height="168" rx="24" fill="#FFFFFF"/>
    <rect x="261" y="486" width="230" height="168" rx="24" fill="#FFFFFF"/>
    <rect x="547" y="486" width="230" height="168" rx="24" fill="#FFFFFF"/>
    <rect x="833" y="486" width="230" height="168" rx="24" fill="#FFFFFF"/>
  </g>
  <rect x="144" y="240" width="178" height="42" rx="14" fill="url(#blue)"/>
  <rect x="430" y="240" width="178" height="42" rx="14" fill="url(#blue)"/>
  <rect x="716" y="240" width="178" height="42" rx="14" fill="url(#blue)"/>
  <rect x="1002" y="240" width="178" height="42" rx="14" fill="url(#blue)"/>
  <rect x="287" y="512" width="178" height="42" rx="14" fill="url(#blue)"/>
  <rect x="573" y="512" width="178" height="42" rx="14" fill="url(#blue)"/>
  <rect x="859" y="512" width="178" height="42" rx="14" fill="url(#blue)"/>
  <text x="209" y="267" fill="#FFFFFF" font-family="Segoe UI, Arial, sans-serif" font-size="22" font-weight="700">desktop</text>
  <text x="504" y="267" fill="#FFFFFF" font-family="Segoe UI, Arial, sans-serif" font-size="22" font-weight="700">api</text>
  <text x="785" y="267" fill="#FFFFFF" font-family="Segoe UI, Arial, sans-serif" font-size="22" font-weight="700">web</text>
  <text x="1050" y="267" fill="#FFFFFF" font-family="Segoe UI, Arial, sans-serif" font-size="22" font-weight="700">worker</text>
  <text x="342" y="539" fill="#FFFFFF" font-family="Segoe UI, Arial, sans-serif" font-size="22" font-weight="700">sql</text>
  <text x="617" y="539" fill="#FFFFFF" font-family="Segoe UI, Arial, sans-serif" font-size="22" font-weight="700">redis</text>
  <text x="901" y="539" fill="#FFFFFF" font-family="Segoe UI, Arial, sans-serif" font-size="22" font-weight="700">rabbitmq</text>
  <text x="146" y="316" fill="#5A7790" font-family="Segoe UI, Arial, sans-serif" font-size="18">Windows desktop shell</text>
  <text x="146" y="344" fill="#5A7790" font-family="Segoe UI, Arial, sans-serif" font-size="18">launches local APIs</text>
  <text x="432" y="316" fill="#5A7790" font-family="Segoe UI, Arial, sans-serif" font-size="18">REST and auth endpoints</text>
  <text x="432" y="344" fill="#5A7790" font-family="Segoe UI, Arial, sans-serif" font-size="18">employee and supervisor CRUD</text>
  <text x="718" y="316" fill="#5A7790" font-family="Segoe UI, Arial, sans-serif" font-size="18">Self-service portal</text>
  <text x="718" y="344" fill="#5A7790" font-family="Segoe UI, Arial, sans-serif" font-size="18">dashboards and approvals</text>
  <text x="1004" y="316" fill="#5A7790" font-family="Segoe UI, Arial, sans-serif" font-size="18">Background jobs for</text>
  <text x="1004" y="344" fill="#5A7790" font-family="Segoe UI, Arial, sans-serif" font-size="18">sync, alerts, and AI scoring</text>
  <text x="289" y="588" fill="#5A7790" font-family="Segoe UI, Arial, sans-serif" font-size="18">Primary data store</text>
  <text x="289" y="616" fill="#5A7790" font-family="Segoe UI, Arial, sans-serif" font-size="18">employee records + audit data</text>
  <text x="575" y="588" fill="#5A7790" font-family="Segoe UI, Arial, sans-serif" font-size="18">Low-latency cache</text>
  <text x="575" y="616" fill="#5A7790" font-family="Segoe UI, Arial, sans-serif" font-size="18">sessions and dashboards</text>
  <text x="861" y="588" fill="#5A7790" font-family="Segoe UI, Arial, sans-serif" font-size="18">Message queue</text>
  <text x="861" y="616" fill="#5A7790" font-family="Segoe UI, Arial, sans-serif" font-size="18">integrations and event fan-out</text>
  <line x1="519" y1="382" x2="519" y2="454" stroke="#5C85A7" stroke-width="6" stroke-linecap="round"/>
  <line x1="805" y1="382" x2="805" y2="454" stroke="#5C85A7" stroke-width="6" stroke-linecap="round"/>
  <line x1="1091" y1="382" x2="1091" y2="454" stroke="#5C85A7" stroke-width="6" stroke-linecap="round"/>
  <line x1="519" y1="454" x2="1091" y2="454" stroke="#5C85A7" stroke-width="6" stroke-linecap="round"/>
  <line x1="377" y1="454" x2="1091" y2="454" stroke="#5C85A7" stroke-width="6" stroke-linecap="round"/>
  <line x1="377" y1="454" x2="377" y2="486" stroke="#5C85A7" stroke-width="6" stroke-linecap="round"/>
  <line x1="662" y1="454" x2="662" y2="486" stroke="#5C85A7" stroke-width="6" stroke-linecap="round"/>
  <line x1="948" y1="454" x2="948" y2="486" stroke="#5C85A7" stroke-width="6" stroke-linecap="round"/>
  <text x="82" y="792" fill="#5A7790" font-family="Consolas, monospace" font-size="24">docker compose up --build</text>
  <rect x="72" y="740" width="1256" height="98" rx="24" fill="#15314B"/>
  <text x="104" y="786" fill="#D9F1FF" font-family="Consolas, monospace" font-size="24">desktop  api  web  worker  sql  redis  rabbitmq  all healthy</text>
</svg>
